<svg width="78" height="64" viewBox="0 0 78 64" fill="none" xmlns="http://www.w3.org/2000/svg">
<path d="M75.7716 10.7152C72.633 11.587 70.0175 12.8948 67.9251 14.6384C66.0071 16.3821 64.3506 18.3873 62.9557 20.6541C61.7351 22.7465 60.6889 25.1876 59.8171 27.9775C59.1196 30.593 58.4221 33.2957 57.7246 36.0856H68.7098L62.4326 63.5483H40.4623L49.0935 27.1929C50.1397 23.0081 51.3603 19.5207 52.7552 16.7309C54.3245 13.7666 56.2425 11.2383 58.5093 9.1459C60.7761 7.0535 63.4788 5.30983 66.6174 3.91489C69.9303 2.51996 73.6792 1.2994 77.864 0.253188L75.7716 10.7152ZM35.7544 10.7152C32.6158 11.587 30.0003 12.8948 27.9079 14.6384C25.9899 16.3821 24.3334 18.3873 22.9385 20.6541C21.7179 22.7465 20.6717 25.1876 19.7999 27.9775C19.1024 30.593 18.4049 33.2957 17.7075 36.0856H28.6926L22.4154 63.5483H0.445165L9.07632 27.1929C10.1225 23.0081 11.3431 19.5207 12.738 16.7309C14.3073 13.7666 16.2254 11.2383 18.4921 9.1459C20.7589 7.0535 23.4616 5.30983 26.6002 3.91489C29.9131 2.51996 33.662 1.2994 37.8468 0.253188L35.7544 10.7152Z" fill="#B1A5D9" fill-opacity="0.24"/>
</svg>
